<?xml version="1.0" encoding="UTF-8"?>
<!DOCTYPE svg PUBLIC "-//W3C//DTD SVG 1.1//EN" "http://www.w3.org/Graphics/SVG/1.1/DTD/svg11.dtd">
<svg version="1.1" xmlns="http://www.w3.org/2000/svg" xmlns:xlink="http://www.w3.org/1999/xlink" x="0" y="0" width="1000" height="559" viewBox="0, 0, 1000, 559">
  <g id="ab">
    <text transform="matrix(1, 0, 0, 1, 170.128, 243)">
      <tspan x="-62.128" y="49.5" font-family="HelveticaNeue" font-size="163" fill="#5E5E5E">A</tspan>
    </text>
    <text transform="matrix(1, 0, 0, 1, 836.128, 243)">
      <tspan x="-62.128" y="49.5" font-family="HelveticaNeue" font-size="163" fill="#5E5E5E">B</tspan>
    </text>
  </g>
  <g id="smooth">
    <path d="M161.5,151.5 C161.5,151.5 472.5,-5.5 828.5,152.5" fill-opacity="0" stroke="#08C357" stroke-width="6" stroke-linecap="round"/>
  </g>
  <g id="bounces">
    <path d="M161.5,309.5 C161.5,309.5 206.5,389.5 296.5,309.5 C296.5,309.5 361.833,387.5 431.167,309.5 C431.167,309.5 497.167,397.5 565.833,309.5 C565.833,309.5 630.5,394.5 700.5,309.5 C700.5,309.5 758.244,394.5 828.5,309.5" fill-opacity="0" stroke="#18C357" stroke-width="6" stroke-linecap="round"/>
    <path d="M296,309 C287.716,309 281,302.284 281,294 C281,285.716 287.716,279 296,279 C304.284,279 311,285.716 311,294 C311,302.284 304.284,309 296,309 z" fill="#5E5E5E"/>
    <path d="M430.667,309 C422.382,309 415.667,302.284 415.667,294 C415.667,285.716 422.382,279 430.667,279 C438.951,279 445.667,285.716 445.667,294 C445.667,302.284 438.951,309 430.667,309 z" fill="#5E5E5E"/>
    <path d="M565.333,309 C557.049,309 550.333,302.284 550.333,294 C550.333,285.716 557.049,279 565.333,279 C573.618,279 580.333,285.716 580.333,294 C580.333,302.284 573.618,309 565.333,309 z" fill="#5E5E5E"/>
    <path d="M700,309 C691.716,309 685,302.284 685,294 C685,285.716 691.716,279 700,279 C708.284,279 715,285.716 715,294 C715,302.284 708.284,309 700,309 z" fill="#5E5E5E"/>
  </g>
  <g id="me">
    <text transform="matrix(1, 0, 0, 1, 528.952, 540)">
      <tspan x="-113.285" y="5.5" font-family="NanumPen" font-size="110" fill="#D81111">me</tspan>
    </text>
    <g>
      <path d="M470.5,470.5 L472,407.494" fill-opacity="0" stroke="#D81111" stroke-width="6"/>
      <path d="M477.998,407.637 L472.381,391.499 L466.002,407.351 M472,407.494 L472.381,391.499" fill-opacity="0" stroke="#D81111" stroke-width="6" stroke-opacity="1"/>
    </g>
  </g>
  <g id="trophies" display="none">
    <path d="M321.875,206.75 L315.328,206.75 C315.433,204.891 315.5,202.949 315.5,200.875 L276.5,200.875 C276.5,202.943 276.558,204.896 276.661,206.75 L270.125,206.75 C269.296,206.75 268.625,207.421 268.625,208.25 C268.625,219.041 274.797,224.735 281.28,227.747 C284.444,234.391 288.558,237.395 291.634,238.753 L291.634,242.625 L287.75,242.625 L287.75,248 L284.5,248 L284.5,256.625 L282.5,256.625 L282.5,262 L309.5,262 L309.5,256.625 L307.5,256.625 L307.5,248 L304.25,248 L304.25,242.625 L300.367,242.625 L300.367,238.702 C303.428,237.321 307.515,234.293 310.674,227.713 C317.174,224.692 323.376,219 323.376,208.25 C323.375,207.421 322.704,206.75 321.875,206.75 z M271.672,209.75 L276.879,209.75 C277.374,215.252 278.323,219.753 279.549,223.429 C274.693,220.25 272.047,215.67 271.672,209.75 z M299.785,220.167 L302.124,227.366 L296,222.917 L289.876,227.366 L292.215,220.167 L286.091,215.718 L293.66,215.718 L296,208.52 L298.339,215.719 L305.908,215.719 L299.785,220.167 z M312.428,223.384 C313.659,219.72 314.607,215.222 315.107,209.75 L320.328,209.75 C319.949,215.636 317.296,220.201 312.428,223.384 z" fill="#E9D30A"/>
    <path d="M456.541,206.75 L449.994,206.75 C450.099,204.891 450.166,202.949 450.166,200.875 L411.166,200.875 C411.166,202.943 411.224,204.896 411.328,206.75 L404.791,206.75 C403.962,206.75 403.291,207.421 403.291,208.25 C403.291,219.041 409.463,224.735 415.946,227.747 C419.11,234.391 423.224,237.395 426.3,238.753 L426.3,242.625 L422.416,242.625 L422.416,248 L419.166,248 L419.166,256.625 L417.166,256.625 L417.166,262 L444.166,262 L444.166,256.625 L442.166,256.625 L442.166,248 L438.916,248 L438.916,242.625 L435.033,242.625 L435.033,238.702 C438.095,237.321 442.181,234.293 445.34,227.713 C451.84,224.692 458.042,219 458.042,208.25 C458.041,207.421 457.37,206.75 456.541,206.75 z M406.338,209.75 L411.545,209.75 C412.04,215.252 412.989,219.753 414.215,223.429 C409.359,220.25 406.713,215.67 406.338,209.75 z M434.451,220.167 L436.79,227.366 L430.666,222.917 L424.542,227.366 L426.881,220.167 L420.757,215.718 L428.326,215.718 L430.666,208.52 L433.005,215.719 L440.574,215.719 L434.451,220.167 z M447.095,223.384 C448.325,219.72 449.273,215.222 449.773,209.75 L454.994,209.75 C454.615,215.636 451.962,220.201 447.095,223.384 z" fill="#E9D30A"/>
    <path d="M591.208,206.75 L584.661,206.75 C584.766,204.891 584.833,202.949 584.833,200.875 L545.833,200.875 C545.833,202.943 545.891,204.896 545.995,206.75 L539.458,206.75 C538.629,206.75 537.958,207.421 537.958,208.25 C537.958,219.041 544.13,224.735 550.613,227.747 C553.777,234.391 557.891,237.395 560.967,238.753 L560.967,242.625 L557.083,242.625 L557.083,248 L553.833,248 L553.833,256.625 L551.833,256.625 L551.833,262 L578.833,262 L578.833,256.625 L576.833,256.625 L576.833,248 L573.583,248 L573.583,242.625 L569.7,242.625 L569.7,238.702 C572.762,237.321 576.848,234.293 580.007,227.713 C586.507,224.692 592.709,219 592.709,208.25 C592.708,207.421 592.037,206.75 591.208,206.75 z M541.005,209.75 L546.212,209.75 C546.707,215.252 547.656,219.753 548.882,223.429 C544.026,220.25 541.38,215.67 541.005,209.75 z M569.118,220.167 L571.457,227.366 L565.333,222.917 L559.209,227.366 L561.548,220.167 L555.424,215.718 L562.993,215.718 L565.333,208.52 L567.672,215.719 L575.241,215.719 L569.118,220.167 z M581.762,223.384 C582.992,219.72 583.94,215.222 584.44,209.75 L589.661,209.75 C589.282,215.636 586.629,220.201 581.762,223.384 z" fill="#E9D30A"/>
    <path d="M727.208,206.75 L720.661,206.75 C720.766,204.891 720.833,202.949 720.833,200.875 L681.833,200.875 C681.833,202.943 681.891,204.896 681.995,206.75 L675.458,206.75 C674.629,206.75 673.958,207.421 673.958,208.25 C673.958,219.041 680.13,224.735 686.613,227.747 C689.777,234.391 693.891,237.395 696.967,238.753 L696.967,242.625 L693.083,242.625 L693.083,248 L689.833,248 L689.833,256.625 L687.833,256.625 L687.833,262 L714.833,262 L714.833,256.625 L712.833,256.625 L712.833,248 L709.583,248 L709.583,242.625 L705.7,242.625 L705.7,238.702 C708.762,237.321 712.848,234.293 716.007,227.713 C722.507,224.692 728.709,219 728.709,208.25 C728.708,207.421 728.037,206.75 727.208,206.75 z M677.005,209.75 L682.212,209.75 C682.707,215.252 683.656,219.753 684.882,223.429 C680.026,220.25 677.38,215.67 677.005,209.75 z M705.118,220.167 L707.457,227.366 L701.333,222.917 L695.209,227.366 L697.548,220.167 L691.424,215.718 L698.993,215.718 L701.333,208.52 L703.672,215.719 L711.241,215.719 L705.118,220.167 z M717.762,223.384 C718.992,219.72 719.94,215.222 720.44,209.75 L725.661,209.75 C725.282,215.636 722.629,220.201 717.762,223.384 z" fill="#E9D30A"/>
  </g>
  <g id="books" display="none">
    <g>
      <path d="M338.33,225.84 L335.943,224.322 L335.943,217.419 L337.8,217.099 C338.394,216.997 338.862,216.536 338.974,215.942 C339.086,215.348 338.818,214.747 338.301,214.435 L299.57,191.104 C299.273,190.924 298.921,190.859 298.58,190.917 L261.481,197.31 C261.084,197.378 260.746,197.608 260.53,197.929 C260.528,197.932 260.526,197.936 260.524,197.939 C260.478,198.009 260.437,198.084 260.403,198.162 C260.399,198.171 260.395,198.179 260.391,198.188 C260.356,198.272 260.327,198.36 260.308,198.451 C260.29,198.539 260.284,198.627 260.283,198.715 C260.283,198.724 260.28,198.733 260.28,198.742 L260.28,209.66 C260.28,209.733 260.291,209.804 260.301,209.874 C260.205,210.432 260.442,211.019 260.95,211.342 L298.074,234.951 C298.309,235.097 298.578,235.176 298.851,235.176 C298.933,235.176 299.015,235.17 299.097,235.155 L337.8,228.489 C338.387,228.385 338.854,227.932 338.972,227.346 C339.09,226.758 338.834,226.16 338.33,225.84 z M263.173,201.368 L297.38,223.119 L297.38,231.078 L263.173,209.326 L263.173,201.368 z M300.272,228.145 L333.051,222.561 L333.051,223.399 L300.272,228.979 L300.272,228.145 z M333.052,221.975 L300.273,227.557 L300.273,226.721 L333.052,221.138 L333.052,221.975 z M300.272,229.566 L333.051,223.986 L333.051,224.822 L300.272,230.402 L300.272,229.566 z M333.052,220.552 L300.272,226.133 L300.272,225.297 L333.051,219.715 L333.051,220.552 z M300.272,230.992 L333.051,225.41 L333.051,226.369 L300.272,232.015 L300.272,230.992 z M333.052,219.129 L300.273,224.711 L300.273,223.565 L333.052,217.918 L333.052,219.129 z M298.54,193.858 L333.48,214.907 L299.156,220.82 L265.663,199.524 L298.54,193.858 z" fill="#04005C"/>
      <path d="M335.124,252.666 L332.737,251.148 L332.737,244.244 L334.593,243.924 C335.187,243.822 335.656,243.362 335.768,242.766 C335.879,242.174 335.612,241.573 335.093,241.262 L316.251,229.908 L316.659,233.531 L330.274,241.734 L295.949,247.646 L289.518,243.556 L287.778,243.833 L285.319,244.313 L294.172,249.942 L294.172,257.903 L259.966,236.15 L259.966,232.13 L257.982,230.921 L257.074,229.056 L257.074,236.484 C257.074,236.556 257.086,236.627 257.095,236.697 C257,237.256 257.237,237.842 257.744,238.166 L294.868,261.773 C295.101,261.921 295.372,262 295.644,262 C295.726,262 295.808,261.992 295.89,261.979 L334.593,255.311 C335.181,255.209 335.648,254.756 335.766,254.17 C335.883,253.584 335.628,252.986 335.124,252.666 z M329.844,253.195 L297.066,258.841 L297.066,257.816 L329.844,252.234 L329.844,253.195 z M329.844,251.648 L297.066,257.228 L297.066,256.393 L329.844,250.811 L329.844,251.648 z M329.844,250.223 L297.066,255.805 L297.066,254.971 L329.844,249.387 L329.844,250.223 z M329.844,248.801 L297.065,254.383 L297.065,253.547 L329.843,247.965 L329.843,248.801 z M329.844,247.379 L297.066,252.959 L297.066,252.123 L329.844,246.541 L329.844,247.379 z M329.844,245.955 L297.066,251.535 L297.066,250.39 L329.844,244.744 L329.844,245.955 z" fill="#04005C"/>
      <path d="M320.863,237.547 L318.476,236.029 L318.476,231.25 L315.583,231.604 L315.583,232.258 L282.804,237.838 L282.804,237.004 L311.81,232.065 L299.642,233.549 L282.804,236.416 L282.804,235.271 L298.144,232.628 L294.421,230.333 L281.688,232.526 L248.196,211.23 L261.529,208.933 L261.529,205.998 L244.014,209.015 C243.618,209.083 243.28,209.313 243.063,209.634 C243.061,209.637 243.059,209.641 243.057,209.644 C243.011,209.714 242.97,209.789 242.936,209.867 C242.932,209.876 242.927,209.885 242.924,209.894 C242.889,209.978 242.86,210.065 242.841,210.156 C242.824,210.244 242.817,210.332 242.816,210.42 C242.816,210.429 242.813,210.438 242.813,210.447 L242.813,221.365 C242.813,221.438 242.825,221.509 242.834,221.578 C242.738,222.137 242.976,222.723 243.483,223.045 L280.607,246.654 C280.841,246.802 281.111,246.881 281.383,246.881 C281.466,246.881 281.548,246.873 281.63,246.86 L320.333,240.192 C320.921,240.09 321.388,239.637 321.506,239.049 C321.623,238.463 321.368,237.867 320.863,237.547 z M279.913,242.785 L245.706,221.031 L245.706,213.073 L279.913,234.824 L279.913,242.785 z M315.584,238.076 L282.805,243.723 L282.805,242.698 L315.584,237.116 L315.584,238.076 z M315.584,236.529 L282.805,242.109 L282.805,241.273 L315.584,235.691 L315.584,236.529 z M315.584,235.105 L282.805,240.685 L282.805,239.849 L315.584,234.267 L315.584,235.105 z M315.584,233.682 L282.805,239.262 L282.805,238.426 L315.584,232.844 L315.584,233.682 z" fill="#04005C"/>
    </g>
    <g>
      <path d="M465.33,225.84 L462.943,224.322 L462.943,217.419 L464.8,217.099 C465.394,216.997 465.862,216.536 465.974,215.942 C466.086,215.348 465.818,214.747 465.301,214.435 L426.57,191.104 C426.273,190.924 425.921,190.859 425.58,190.917 L388.481,197.31 C388.084,197.378 387.746,197.608 387.53,197.929 C387.528,197.932 387.526,197.936 387.524,197.939 C387.478,198.009 387.437,198.084 387.403,198.162 C387.399,198.171 387.395,198.179 387.391,198.188 C387.356,198.272 387.327,198.36 387.308,198.451 C387.29,198.539 387.284,198.627 387.283,198.715 C387.283,198.724 387.28,198.733 387.28,198.742 L387.28,209.66 C387.28,209.733 387.291,209.804 387.301,209.874 C387.205,210.432 387.442,211.019 387.95,211.342 L425.074,234.951 C425.309,235.097 425.578,235.176 425.851,235.176 C425.933,235.176 426.015,235.17 426.097,235.155 L464.8,228.489 C465.387,228.385 465.854,227.932 465.972,227.346 C466.09,226.758 465.834,226.16 465.33,225.84 z M390.173,201.368 L424.38,223.119 L424.38,231.078 L390.173,209.326 L390.173,201.368 z M427.272,228.145 L460.051,222.561 L460.051,223.399 L427.272,228.979 L427.272,228.145 z M460.052,221.975 L427.273,227.557 L427.273,226.721 L460.052,221.138 L460.052,221.975 z M427.272,229.566 L460.051,223.986 L460.051,224.822 L427.272,230.402 L427.272,229.566 z M460.052,220.552 L427.272,226.133 L427.272,225.297 L460.051,219.715 L460.051,220.552 z M427.272,230.992 L460.051,225.41 L460.051,226.369 L427.272,232.015 L427.272,230.992 z M460.052,219.129 L427.273,224.711 L427.273,223.565 L460.052,217.918 L460.052,219.129 z M425.54,193.858 L460.48,214.907 L426.156,220.82 L392.663,199.524 L425.54,193.858 z" fill="#04005C"/>
      <path d="M462.124,252.666 L459.737,251.148 L459.737,244.244 L461.593,243.924 C462.187,243.822 462.656,243.362 462.768,242.766 C462.879,242.174 462.612,241.573 462.093,241.262 L443.251,229.908 L443.659,233.531 L457.274,241.734 L422.949,247.646 L416.518,243.556 L414.778,243.833 L412.319,244.313 L421.172,249.942 L421.172,257.903 L386.966,236.15 L386.966,232.13 L384.982,230.921 L384.074,229.056 L384.074,236.484 C384.074,236.556 384.086,236.627 384.095,236.697 C384,237.256 384.237,237.842 384.744,238.166 L421.868,261.773 C422.101,261.921 422.372,262 422.644,262 C422.726,262 422.808,261.992 422.89,261.979 L461.593,255.311 C462.181,255.209 462.648,254.756 462.766,254.17 C462.883,253.584 462.628,252.986 462.124,252.666 z M456.844,253.195 L424.066,258.841 L424.066,257.816 L456.844,252.234 L456.844,253.195 z M456.844,251.648 L424.066,257.228 L424.066,256.393 L456.844,250.811 L456.844,251.648 z M456.844,250.223 L424.066,255.805 L424.066,254.971 L456.844,249.387 L456.844,250.223 z M456.844,248.801 L424.065,254.383 L424.065,253.547 L456.843,247.965 L456.843,248.801 z M456.844,247.379 L424.066,252.959 L424.066,252.123 L456.844,246.541 L456.844,247.379 z M456.844,245.955 L424.066,251.535 L424.066,250.39 L456.844,244.744 L456.844,245.955 z" fill="#04005C"/>
      <path d="M447.863,237.547 L445.476,236.029 L445.476,231.25 L442.583,231.604 L442.583,232.258 L409.804,237.838 L409.804,237.004 L438.81,232.065 L426.642,233.549 L409.804,236.416 L409.804,235.271 L425.144,232.628 L421.421,230.333 L408.688,232.526 L375.196,211.23 L388.529,208.933 L388.529,205.998 L371.014,209.015 C370.618,209.083 370.28,209.313 370.063,209.634 C370.061,209.637 370.059,209.641 370.057,209.644 C370.011,209.714 369.97,209.789 369.936,209.867 C369.932,209.876 369.927,209.885 369.924,209.894 C369.889,209.978 369.86,210.065 369.841,210.156 C369.824,210.244 369.817,210.332 369.816,210.42 C369.816,210.429 369.813,210.438 369.813,210.447 L369.813,221.365 C369.813,221.438 369.825,221.509 369.834,221.578 C369.738,222.137 369.976,222.723 370.483,223.045 L407.607,246.654 C407.841,246.802 408.111,246.881 408.383,246.881 C408.466,246.881 408.548,246.873 408.63,246.86 L447.333,240.192 C447.921,240.09 448.388,239.637 448.506,239.049 C448.623,238.463 448.368,237.867 447.863,237.547 z M406.913,242.785 L372.706,221.031 L372.706,213.073 L406.913,234.824 L406.913,242.785 z M442.584,238.076 L409.805,243.723 L409.805,242.698 L442.584,237.116 L442.584,238.076 z M442.584,236.529 L409.805,242.109 L409.805,241.273 L442.584,235.691 L442.584,236.529 z M442.584,235.105 L409.805,240.685 L409.805,239.849 L442.584,234.267 L442.584,235.105 z M442.584,233.682 L409.805,239.262 L409.805,238.426 L442.584,232.844 L442.584,233.682 z" fill="#04005C"/>
    </g>
    <g>
      <path d="M597.33,225.84 L594.943,224.322 L594.943,217.419 L596.799,217.099 C597.394,216.997 597.862,216.536 597.974,215.942 C598.086,215.348 597.818,214.747 597.301,214.435 L558.57,191.104 C558.273,190.924 557.921,190.859 557.58,190.917 L520.481,197.31 C520.084,197.378 519.746,197.608 519.53,197.929 C519.528,197.932 519.526,197.936 519.524,197.939 C519.478,198.009 519.437,198.084 519.403,198.162 C519.399,198.171 519.395,198.179 519.391,198.188 C519.356,198.272 519.327,198.36 519.308,198.451 C519.29,198.539 519.284,198.627 519.283,198.715 C519.283,198.724 519.28,198.733 519.28,198.742 L519.28,209.66 C519.28,209.733 519.291,209.804 519.301,209.874 C519.205,210.432 519.442,211.019 519.95,211.342 L557.074,234.951 C557.309,235.097 557.578,235.176 557.851,235.176 C557.933,235.176 558.015,235.17 558.097,235.155 L596.799,228.489 C597.387,228.385 597.854,227.932 597.972,227.346 C598.09,226.758 597.834,226.16 597.33,225.84 z M522.173,201.368 L556.38,223.119 L556.38,231.078 L522.173,209.326 L522.173,201.368 z M559.272,228.145 L592.051,222.561 L592.051,223.399 L559.272,228.979 L559.272,228.145 z M592.052,221.975 L559.273,227.557 L559.273,226.721 L592.052,221.138 L592.052,221.975 z M559.272,229.566 L592.051,223.986 L592.051,224.822 L559.272,230.402 L559.272,229.566 z M592.052,220.552 L559.272,226.133 L559.272,225.297 L592.051,219.715 L592.051,220.552 z M559.272,230.992 L592.051,225.41 L592.051,226.369 L559.272,232.015 L559.272,230.992 z M592.052,219.129 L559.273,224.711 L559.273,223.565 L592.052,217.918 L592.052,219.129 z M557.54,193.858 L592.48,214.907 L558.156,220.82 L524.663,199.524 L557.54,193.858 z" fill="#04005C"/>
      <path d="M594.124,252.666 L591.737,251.148 L591.737,244.244 L593.593,243.924 C594.187,243.822 594.656,243.362 594.768,242.766 C594.879,242.174 594.612,241.573 594.093,241.262 L575.251,229.908 L575.659,233.531 L589.274,241.734 L554.949,247.646 L548.518,243.556 L546.778,243.833 L544.319,244.313 L553.172,249.942 L553.172,257.903 L518.966,236.15 L518.966,232.13 L516.982,230.921 L516.074,229.056 L516.074,236.484 C516.074,236.556 516.086,236.627 516.095,236.697 C516,237.256 516.237,237.842 516.744,238.166 L553.868,261.773 C554.101,261.921 554.372,262 554.644,262 C554.726,262 554.808,261.992 554.89,261.979 L593.593,255.311 C594.181,255.209 594.648,254.756 594.766,254.17 C594.883,253.584 594.628,252.986 594.124,252.666 z M588.844,253.195 L556.066,258.841 L556.066,257.816 L588.844,252.234 L588.844,253.195 z M588.844,251.648 L556.066,257.228 L556.066,256.393 L588.844,250.811 L588.844,251.648 z M588.844,250.223 L556.066,255.805 L556.066,254.971 L588.844,249.387 L588.844,250.223 z M588.844,248.801 L556.065,254.383 L556.065,253.547 L588.843,247.965 L588.843,248.801 z M588.844,247.379 L556.066,252.959 L556.066,252.123 L588.844,246.541 L588.844,247.379 z M588.844,245.955 L556.066,251.535 L556.066,250.39 L588.844,244.744 L588.844,245.955 z" fill="#04005C"/>
      <path d="M579.863,237.547 L577.476,236.029 L577.476,231.25 L574.583,231.604 L574.583,232.258 L541.804,237.838 L541.804,237.004 L570.81,232.065 L558.642,233.549 L541.804,236.416 L541.804,235.271 L557.144,232.628 L553.421,230.333 L540.688,232.526 L507.196,211.23 L520.529,208.933 L520.529,205.998 L503.014,209.015 C502.618,209.083 502.28,209.313 502.063,209.634 C502.061,209.637 502.059,209.641 502.057,209.644 C502.011,209.714 501.97,209.789 501.936,209.867 C501.932,209.876 501.927,209.885 501.924,209.894 C501.889,209.978 501.86,210.065 501.841,210.156 C501.824,210.244 501.817,210.332 501.816,210.42 C501.816,210.429 501.813,210.438 501.813,210.447 L501.813,221.365 C501.813,221.438 501.825,221.509 501.834,221.578 C501.738,222.137 501.976,222.723 502.483,223.045 L539.607,246.654 C539.841,246.802 540.111,246.881 540.383,246.881 C540.466,246.881 540.548,246.873 540.63,246.86 L579.333,240.192 C579.921,240.09 580.388,239.637 580.506,239.049 C580.623,238.463 580.368,237.867 579.863,237.547 z M538.913,242.785 L504.706,221.031 L504.706,213.073 L538.913,234.824 L538.913,242.785 z M574.584,238.076 L541.805,243.723 L541.805,242.698 L574.584,237.116 L574.584,238.076 z M574.584,236.529 L541.805,242.109 L541.805,241.273 L574.584,235.691 L574.584,236.529 z M574.584,235.105 L541.805,240.685 L541.805,239.849 L574.584,234.267 L574.584,235.105 z M574.584,233.682 L541.805,239.262 L541.805,238.426 L574.584,232.844 L574.584,233.682 z" fill="#04005C"/>
    </g>
    <g>
      <path d="M737.754,225.84 L735.367,224.322 L735.367,217.419 L737.224,217.099 C737.818,216.997 738.286,216.536 738.398,215.942 C738.51,215.348 738.242,214.747 737.725,214.435 L698.994,191.104 C698.697,190.924 698.345,190.859 698.004,190.917 L660.905,197.31 C660.508,197.378 660.17,197.608 659.954,197.929 C659.952,197.932 659.95,197.936 659.948,197.939 C659.902,198.009 659.861,198.084 659.827,198.162 C659.823,198.171 659.819,198.179 659.815,198.188 C659.78,198.272 659.751,198.36 659.732,198.451 C659.714,198.539 659.708,198.627 659.707,198.715 C659.707,198.724 659.704,198.733 659.704,198.742 L659.704,209.66 C659.704,209.733 659.715,209.804 659.725,209.874 C659.629,210.432 659.866,211.019 660.374,211.342 L697.498,234.951 C697.733,235.097 698.002,235.176 698.275,235.176 C698.357,235.176 698.439,235.17 698.521,235.155 L737.224,228.489 C737.811,228.385 738.278,227.932 738.396,227.346 C738.514,226.758 738.258,226.16 737.754,225.84 z M662.597,201.368 L696.804,223.119 L696.804,231.078 L662.597,209.326 L662.597,201.368 z M699.696,228.145 L732.475,222.561 L732.475,223.399 L699.696,228.979 L699.696,228.145 z M732.476,221.975 L699.697,227.557 L699.697,226.721 L732.476,221.138 L732.476,221.975 z M699.696,229.566 L732.475,223.986 L732.475,224.822 L699.696,230.402 L699.696,229.566 z M732.476,220.552 L699.696,226.133 L699.696,225.297 L732.475,219.715 L732.475,220.552 z M699.696,230.992 L732.475,225.41 L732.475,226.369 L699.696,232.015 L699.696,230.992 z M732.476,219.129 L699.697,224.711 L699.697,223.565 L732.476,217.918 L732.476,219.129 z M697.964,193.858 L732.904,214.907 L698.58,220.82 L665.087,199.524 L697.964,193.858 z" fill="#04005C"/>
      <path d="M734.548,252.666 L732.161,251.148 L732.161,244.244 L734.017,243.924 C734.611,243.822 735.08,243.362 735.192,242.766 C735.303,242.174 735.036,241.573 734.517,241.262 L715.675,229.908 L716.083,233.531 L729.698,241.734 L695.373,247.646 L688.942,243.556 L687.202,243.833 L684.743,244.313 L693.596,249.942 L693.596,257.903 L659.39,236.15 L659.39,232.13 L657.406,230.921 L656.498,229.056 L656.498,236.484 C656.498,236.556 656.51,236.627 656.519,236.697 C656.424,237.256 656.661,237.842 657.168,238.166 L694.292,261.773 C694.525,261.921 694.796,262 695.068,262 C695.15,262 695.232,261.992 695.314,261.979 L734.017,255.311 C734.605,255.209 735.072,254.756 735.19,254.17 C735.307,253.584 735.052,252.986 734.548,252.666 z M729.268,253.195 L696.49,258.841 L696.49,257.816 L729.268,252.234 L729.268,253.195 z M729.268,251.648 L696.49,257.228 L696.49,256.393 L729.268,250.811 L729.268,251.648 z M729.268,250.223 L696.49,255.805 L696.49,254.971 L729.268,249.387 L729.268,250.223 z M729.268,248.801 L696.489,254.383 L696.489,253.547 L729.267,247.965 L729.267,248.801 z M729.268,247.379 L696.49,252.959 L696.49,252.123 L729.268,246.541 L729.268,247.379 z M729.268,245.955 L696.49,251.535 L696.49,250.39 L729.268,244.744 L729.268,245.955 z" fill="#04005C"/>
      <path d="M720.287,237.547 L717.9,236.029 L717.9,231.25 L715.007,231.604 L715.007,232.258 L682.228,237.838 L682.228,237.004 L711.234,232.065 L699.066,233.549 L682.228,236.416 L682.228,235.271 L697.568,232.628 L693.845,230.333 L681.112,232.526 L647.62,211.23 L660.953,208.933 L660.953,205.998 L643.438,209.015 C643.042,209.083 642.704,209.313 642.487,209.634 C642.485,209.637 642.483,209.641 642.481,209.644 C642.435,209.714 642.394,209.789 642.36,209.867 C642.356,209.876 642.351,209.885 642.348,209.894 C642.313,209.978 642.284,210.065 642.265,210.156 C642.248,210.244 642.241,210.332 642.24,210.42 C642.24,210.429 642.237,210.438 642.237,210.447 L642.237,221.365 C642.237,221.438 642.249,221.509 642.258,221.578 C642.162,222.137 642.4,222.723 642.907,223.045 L680.031,246.654 C680.265,246.802 680.535,246.881 680.807,246.881 C680.89,246.881 680.972,246.873 681.054,246.86 L719.757,240.192 C720.345,240.09 720.812,239.637 720.93,239.049 C721.047,238.463 720.792,237.867 720.287,237.547 z M679.337,242.785 L645.13,221.031 L645.13,213.073 L679.337,234.824 L679.337,242.785 z M715.008,238.076 L682.229,243.723 L682.229,242.698 L715.008,237.116 L715.008,238.076 z M715.008,236.529 L682.229,242.109 L682.229,241.273 L715.008,235.691 L715.008,236.529 z M715.008,235.105 L682.229,240.685 L682.229,239.849 L715.008,234.267 L715.008,235.105 z M715.008,233.682 L682.229,239.262 L682.229,238.426 L715.008,232.844 L715.008,233.682 z" fill="#04005C"/>
    </g>
  </g>
</svg>
