<?xml version="1.0" encoding="UTF-8"?>
<!DOCTYPE svg PUBLIC "-//W3C//DTD SVG 1.1//EN" "http://www.w3.org/Graphics/SVG/1.1/DTD/svg11.dtd">
<svg version="1.1" xmlns="http://www.w3.org/2000/svg" xmlns:xlink="http://www.w3.org/1999/xlink" x="0" y="0" width="300" height="300" viewBox="0, 0, 300, 300">
  <g id="Layer_1">
    <g>
      <g>
        <g>
          <g>
            <path d="M30.631,103.55 C30.631,103.55 21.491,106.555 23.014,108.226 L8.796,202.319 C8.796,202.319 10.827,205.873 12.858,205.365 C12.858,205.365 17.682,202.826 18.444,202.319 C19.206,201.811 18.952,201.049 18.952,201.049 C18.952,201.049 25.299,157.124 26.061,157.124 C26.061,157.124 34.44,145.19 34.948,145.19 C35.456,145.19 37.487,124.878 37.487,124.878 L30.631,103.55 z" fill="#09AED5"/>
            <path d="M50.626,162.583 L47.452,181.308 L49.674,183.212 C49.674,183.212 55.07,184.164 56.657,181.308 L59.83,164.169 L50.626,162.583 z" fill="#09AED5"/>
          </g>
          <path d="M32.512,95.721 C32.804,94.926 136.19,35.207 165.812,28.86 C165.812,28.86 246.638,58.059 262.719,72.023 C262.719,72.023 273.298,110.532 266.528,122.804 C266.528,122.804 145.077,199.822 131.535,201.091 C131.535,201.091 71.868,183.318 33.782,151.157 C33.782,151.157 18.548,133.807 32.512,95.721 z" fill="#3A3A3A"/>
          <path d="M31.965,95.721 C32.274,94.933 135.643,35.207 165.265,28.86 C165.265,28.86 246.091,58.059 262.172,72.023 C262.172,72.023 271.841,89.162 265.07,101.434 C265.07,101.434 146.264,171.258 132.722,172.527 C132.722,172.527 72.42,146.819 27.035,121.746 C27.035,121.746 24.495,114.764 31.965,95.721 z" fill="#353535"/>
          <path d="M32.617,95.721 C32.617,95.721 136.295,35.207 165.917,28.86 C165.917,28.86 258.366,64.618 262.824,72.023 C249.085,84.93 153.448,140.789 133.559,147.56 C27.871,96.779 32.617,95.721 32.617,95.721 z" fill="#2C2C2C"/>
          <g>
            <path d="M171.802,145.444 L198.462,129.956 C198.462,129.956 212.935,133.511 211.665,141.382 C211.665,141.382 216.235,179.975 216.743,186.323 C216.743,186.323 212.681,201.049 209.38,206.381 C209.38,206.381 213.696,259.447 213.95,263.764 C213.95,263.764 208.364,269.349 204.556,266.303 C204.556,266.303 198.97,215.014 197.7,212.221 C197.7,212.221 187.29,201.557 187.29,200.795 C187.29,200.795 182.72,157.378 182.212,154.077 C181.704,150.776 181.704,151.538 181.704,151.538 L171.802,145.444 z" fill="#09AED5"/>
            <path d="M208.618,123.714 L235.278,108.226 C235.278,108.226 249.751,111.781 248.481,119.652 C248.481,119.652 253.052,158.245 253.559,164.593 C253.559,164.593 249.497,179.32 246.196,184.652 C246.196,184.652 250.513,237.718 250.766,242.034 C250.766,242.034 245.181,247.62 241.372,244.573 C241.372,244.573 235.786,193.284 234.517,190.491 C234.517,190.491 224.107,179.827 224.107,179.066 C224.107,179.066 219.536,135.648 219.028,132.347 C218.521,129.046 218.521,129.808 218.521,129.808 L208.618,123.714 z" fill="#09AED5"/>
            <path d="M143.365,160.678 L159.615,151.792 C159.615,151.792 173.326,155.854 173.326,164.995 C173.326,164.995 178.658,206.889 178.658,210.444 C178.658,210.444 174.087,227.201 171.802,229.994 C171.802,229.994 175.357,285.345 176.372,288.392 C176.372,288.392 170.279,296.771 166.47,290.931 L152.252,171.596 L143.111,167.026 L143.365,160.678 z" fill="#09AED5"/>
            <path d="M247.212,101.772 L260.923,93.394 C260.923,93.394 275.141,99.741 275.141,106.089 C275.141,106.089 283.52,213.533 283.266,217.045 C283.266,217.045 278.442,223.901 273.364,219.076 L270.063,167.788 C270.063,167.788 261.43,158.647 260.669,157.124 C260.669,157.124 257.368,115.483 256.098,110.405 L246.958,105.835 L247.212,101.772 z" fill="#09AED5"/>
          </g>
          <path d="M136.055,130.1 C131.875,130.556 128.247,128.735 127.953,126.034 C127.659,123.333 130.81,120.775 134.99,120.319 C139.171,119.864 142.798,121.684 143.092,124.385 C143.386,127.086 140.236,129.645 136.055,130.1 z" fill="#09AED5"/>
        </g>
        <path d="M25.094,9.325 C15.605,10.417 8.98,18.929 10.056,28.276 C12.258,47.396 32.089,50.134 47.287,67.47 C57.598,47.341 76.898,39.235 74.778,20.824 C73.702,11.477 65.173,4.71 55.826,5.786 C49.028,6.569 43.537,11.219 41.515,17.336 C38.155,11.839 31.892,8.542 25.094,9.325 z" fill="#FFA5E3"/>
      </g>
      <g>
        <path d="M95.175,93.485 L93.477,90.17 L90.162,91.868 L92.588,84.348 L96.833,92.636 L100.148,90.938 L93.356,77.677 L90.041,79.375 L85.189,94.415 L86.887,97.73 z" fill="#656565"/>
        <path d="M115.226,83.216 L108.434,69.955 L105.119,71.653 L109.364,79.941 L99.337,76.707 L98.488,75.049 L95.173,76.747 L96.871,80.062 L111.91,84.914 z" fill="#656565"/>
        <path d="M120.358,80.588 L115.264,70.642 L120.237,68.095 L122.743,68.904 L117.77,71.451 L119.468,74.766 L126.988,77.192 L130.303,75.494 L128.605,72.179 L126.948,73.028 L124.441,72.219 L127.757,70.521 L125.21,65.548 L120.196,63.931 L110.251,69.025 L117.042,82.286 z" fill="#656565"/>
        <path d="M143.724,68.621 L139.479,60.332 L132.848,63.728 L134.546,67.044 L137.861,65.346 L138.71,67.003 L133.738,69.55 L130.342,62.92 L138.63,58.675 L136.932,55.36 L125.328,61.302 L132.12,74.563 z" fill="#656565"/>
        <path d="M144.611,57.704 L141.295,59.402 L143.842,64.375 L148.856,65.992 z M143.762,56.046 L142.064,52.731 L138.749,54.429 L140.447,57.744 z" fill="#656565"/>
        <path d="M153.988,63.364 L148.894,53.418 L153.867,50.871 L156.373,51.68 L151.4,54.227 L153.098,57.542 L160.618,59.968 L163.933,58.27 L162.235,54.955 L160.578,55.804 L158.071,54.995 L161.386,53.297 L158.839,48.324 L153.826,46.707 L143.881,51.801 L150.672,65.062 z" fill="#656565"/>
        <path d="M175.696,52.246 L173.998,48.93 L167.367,52.326 L162.274,42.381 L158.958,44.078 L165.75,57.339 z" fill="#656565"/>
      </g>
    </g>
  </g>
</svg>
