<?xml version="1.0" encoding="UTF-8"?>
<!DOCTYPE svg PUBLIC "-//W3C//DTD SVG 1.1//EN" "http://www.w3.org/Graphics/SVG/1.1/DTD/svg11.dtd">
<svg version="1.1" xmlns="http://www.w3.org/2000/svg" xmlns:xlink="http://www.w3.org/1999/xlink" x="0" y="0" width="1000" height="792" viewBox="0, 0, 1000, 792">
  <g id="Layer_1">
    <g>
      <g>
        <g>
          <g>
            <g>
              <path d="M259.765,164.952 C259.765,164.952 255.117,166.48 255.891,167.33 L248.66,215.183 C248.66,215.183 249.693,216.991 250.726,216.733 C250.726,216.733 253.18,215.441 253.567,215.183 C253.955,214.925 253.826,214.538 253.826,214.538 C253.826,214.538 257.053,192.198 257.441,192.198 C257.441,192.198 261.702,186.129 261.961,186.129 C262.219,186.129 263.252,175.799 263.252,175.799 L259.765,164.952 z" fill="#09AED5"/>
              <path d="M269.934,194.975 L268.32,204.498 L269.45,205.466 C269.45,205.466 272.194,205.95 273.001,204.498 L274.615,195.781 L269.934,194.975 z" fill="#09AED5"/>
            </g>
            <path d="M260.722,160.97 C260.87,160.566 313.45,130.194 328.515,126.966 C328.515,126.966 369.622,141.816 377.8,148.918 C377.8,148.918 383.181,168.503 379.737,174.744 C379.737,174.744 317.97,213.914 311.083,214.559 C311.083,214.559 280.738,205.52 261.368,189.164 C261.368,189.164 253.62,180.34 260.722,160.97 z" fill="#3A3A3A"/>
            <path d="M260.444,160.97 C260.601,160.569 313.172,130.194 328.237,126.966 C328.237,126.966 369.344,141.816 377.522,148.918 C377.522,148.918 382.44,157.634 378.996,163.875 C378.996,163.875 318.574,199.386 311.687,200.032 C311.687,200.032 281.018,186.957 257.936,174.206 C257.936,174.206 256.645,170.655 260.444,160.97 z" fill="#353535"/>
            <path d="M260.775,160.97 C260.775,160.97 313.504,130.194 328.569,126.966 C328.569,126.966 375.586,145.152 377.854,148.918 C370.866,155.482 322.227,183.891 312.112,187.334 C258.362,161.508 260.775,160.97 260.775,160.97 z" fill="#2C2C2C"/>
            <g>
              <path d="M331.562,186.258 L345.12,178.381 C345.12,178.381 352.481,180.189 351.835,184.192 C351.835,184.192 354.159,203.82 354.418,207.048 C354.418,207.048 352.352,214.538 350.673,217.249 C350.673,217.249 352.868,244.238 352.997,246.433 C352.997,246.433 350.156,249.274 348.22,247.724 C348.22,247.724 345.379,221.64 344.733,220.219 C344.733,220.219 339.439,214.796 339.439,214.408 C339.439,214.408 337.114,192.327 336.856,190.649 C336.598,188.97 336.598,189.357 336.598,189.357 L331.562,186.258 z" fill="#09AED5"/>
              <path d="M350.286,175.207 L363.844,167.33 C363.844,167.33 371.205,169.138 370.559,173.141 C370.559,173.141 372.884,192.768 373.142,195.997 C373.142,195.997 371.076,203.487 369.397,206.198 C369.397,206.198 371.593,233.187 371.721,235.382 C371.721,235.382 368.881,238.223 366.944,236.673 C366.944,236.673 364.103,210.588 363.457,209.168 C363.457,209.168 358.163,203.745 358.163,203.357 C358.163,203.357 355.838,181.276 355.58,179.597 C355.322,177.918 355.322,178.306 355.322,178.306 L350.286,175.207 z" fill="#09AED5"/>
              <path d="M317.099,194.006 L325.364,189.487 C325.364,189.487 332.337,191.552 332.337,196.201 C332.337,196.201 335.049,217.508 335.049,219.316 C335.049,219.316 332.724,227.838 331.562,229.258 C331.562,229.258 333.37,257.409 333.886,258.958 C333.886,258.958 330.787,263.22 328.85,260.25 L321.619,199.558 L316.97,197.234 L317.099,194.006 z" fill="#09AED5"/>
              <path d="M369.914,164.047 L376.887,159.786 C376.887,159.786 384.118,163.014 384.118,166.243 C384.118,166.243 388.379,220.887 388.25,222.673 C388.25,222.673 385.797,226.16 383.214,223.706 L381.535,197.622 C381.535,197.622 377.145,192.973 376.758,192.198 C376.758,192.198 375.079,171.021 374.433,168.438 L369.785,166.114 L369.914,164.047 z" fill="#09AED5"/>
            </g>
            <path d="M313.382,178.454 C311.256,178.686 309.411,177.76 309.261,176.387 C309.112,175.013 310.714,173.712 312.84,173.48 C314.966,173.249 316.811,174.174 316.961,175.548 C317.11,176.922 315.508,178.223 313.382,178.454 z" fill="#09AED5"/>
          </g>
          <path d="M256.949,117.031 C252.123,117.586 248.754,121.915 249.301,126.669 C250.421,136.393 260.507,137.785 268.236,146.602 C273.48,136.365 283.296,132.242 282.217,122.879 C281.67,118.125 277.333,114.684 272.579,115.231 C269.122,115.629 266.329,117.994 265.301,121.105 C263.592,118.309 260.407,116.633 256.949,117.031 z" fill="#FFA5E3"/>
        </g>
        <g>
          <path d="M292.591,159.833 L291.727,158.147 L290.041,159.01 L291.275,155.186 L293.434,159.401 L295.12,158.537 L291.666,151.793 L289.98,152.657 L287.512,160.306 L288.376,161.992 z" fill="#656565"/>
          <path d="M302.788,154.61 L299.334,147.866 L297.648,148.729 L299.807,152.945 L294.708,151.3 L294.276,150.457 L292.59,151.32 L293.453,153.006 L301.102,155.474 z" fill="#656565"/>
          <path d="M305.398,153.274 L302.808,148.215 L305.337,146.92 L306.611,147.331 L304.082,148.627 L304.946,150.313 L308.77,151.546 L310.456,150.683 L309.593,148.997 L308.75,149.429 L307.475,149.017 L309.161,148.154 L307.866,145.625 L305.316,144.802 L300.258,147.393 L303.712,154.137 z" fill="#656565"/>
          <path d="M317.282,147.187 L315.123,142.972 L311.751,144.699 L312.614,146.385 L314.3,145.522 L314.732,146.365 L312.203,147.66 L310.476,144.288 L314.691,142.129 L313.828,140.443 L307.926,143.465 L311.38,150.209 z" fill="#656565"/>
          <path d="M317.733,141.635 L316.047,142.499 L317.342,145.028 L319.892,145.85 z M317.301,140.792 L316.438,139.106 L314.752,139.97 L315.615,141.656 z" fill="#656565"/>
          <path d="M322.502,144.514 L319.911,139.456 L322.44,138.16 L323.715,138.572 L321.186,139.867 L322.049,141.553 L325.874,142.787 L327.56,141.923 L326.696,140.237 L325.854,140.669 L324.578,140.258 L326.264,139.394 L324.969,136.865 L322.42,136.042 L317.362,138.633 L320.816,145.377 z" fill="#656565"/>
          <path d="M333.542,138.859 L332.679,137.173 L329.306,138.9 L326.716,133.842 L325.03,134.705 L328.484,141.45 z" fill="#656565"/>
        </g>
      </g>
      <text transform="matrix(1, 0, 0, 1, 328.177, 281.545)">
        <tspan x="-118.296" y="5.443" font-family="Helvetica" font-size="29" fill="#000000">avrgirl-arduino</tspan>
      </text>
    </g>
    <g>
      <g>
        <g>
          <g>
            <g>
              <path d="M594.066,164.952 C594.066,164.952 589.418,166.48 590.192,167.33 L582.961,215.183 C582.961,215.183 583.994,216.991 585.027,216.733 C585.027,216.733 587.481,215.441 587.868,215.183 C588.256,214.925 588.127,214.538 588.127,214.538 C588.127,214.538 591.355,192.198 591.742,192.198 C591.742,192.198 596.003,186.129 596.262,186.129 C596.52,186.129 597.553,175.799 597.553,175.799 L594.066,164.952 z" fill="#09AED5"/>
              <path d="M604.235,194.975 L602.621,204.498 L603.751,205.466 C603.751,205.466 606.495,205.95 607.303,204.498 L608.916,195.781 L604.235,194.975 z" fill="#09AED5"/>
            </g>
            <path d="M595.024,160.97 C595.172,160.566 647.752,130.194 662.817,126.966 C662.817,126.966 703.924,141.816 712.102,148.918 C712.102,148.918 717.482,168.503 714.039,174.744 C714.039,174.744 652.272,213.914 645.385,214.559 C645.385,214.559 615.039,205.52 595.669,189.164 C595.669,189.164 587.922,180.34 595.024,160.97 z" fill="#3A3A3A"/>
            <path d="M594.745,160.97 C594.903,160.569 647.474,130.194 662.539,126.966 C662.539,126.966 703.645,141.816 711.824,148.918 C711.824,148.918 716.741,157.634 713.298,163.875 C713.298,163.875 652.875,199.386 645.988,200.032 C645.988,200.032 615.32,186.957 592.238,174.206 C592.238,174.206 590.946,170.655 594.745,160.97 z" fill="#353535"/>
            <path d="M595.077,160.97 C595.077,160.97 647.805,130.194 662.871,126.966 C662.871,126.966 709.888,145.152 712.155,148.918 C705.168,155.482 656.529,183.891 646.414,187.334 C592.663,161.508 595.077,160.97 595.077,160.97 z" fill="#2C2C2C"/>
            <g>
              <path d="M665.863,186.258 L679.422,178.381 C679.422,178.381 686.782,180.189 686.136,184.192 C686.136,184.192 688.461,203.82 688.719,207.048 C688.719,207.048 686.653,214.538 684.974,217.249 C684.974,217.249 687.169,244.238 687.298,246.433 C687.298,246.433 684.458,249.274 682.521,247.724 C682.521,247.724 679.68,221.64 679.034,220.219 C679.034,220.219 673.74,214.796 673.74,214.408 C673.74,214.408 671.416,192.327 671.157,190.649 C670.899,188.97 670.899,189.357 670.899,189.357 L665.863,186.258 z" fill="#09AED5"/>
              <path d="M684.587,175.207 L698.145,167.33 C698.145,167.33 705.506,169.138 704.86,173.141 C704.86,173.141 707.185,192.768 707.443,195.997 C707.443,195.997 705.377,203.487 703.698,206.198 C703.698,206.198 705.894,233.187 706.022,235.382 C706.022,235.382 703.182,238.223 701.245,236.673 C701.245,236.673 698.404,210.588 697.758,209.168 C697.758,209.168 692.464,203.745 692.464,203.357 C692.464,203.357 690.139,181.276 689.881,179.597 C689.623,177.918 689.623,178.306 689.623,178.306 L684.587,175.207 z" fill="#09AED5"/>
              <path d="M651.4,194.006 L659.665,189.487 C659.665,189.487 666.638,191.552 666.638,196.201 C666.638,196.201 669.35,217.508 669.35,219.316 C669.35,219.316 667.025,227.838 665.863,229.258 C665.863,229.258 667.671,257.409 668.187,258.958 C668.187,258.958 665.088,263.22 663.151,260.25 L655.92,199.558 L651.271,197.234 L651.4,194.006 z" fill="#09AED5"/>
              <path d="M704.215,164.047 L711.188,159.786 C711.188,159.786 718.419,163.014 718.419,166.243 C718.419,166.243 722.68,220.887 722.551,222.673 C722.551,222.673 720.098,226.16 717.515,223.706 L715.836,197.622 C715.836,197.622 711.446,192.973 711.059,192.198 C711.059,192.198 709.38,171.021 708.734,168.438 L704.086,166.114 L704.215,164.047 z" fill="#09AED5"/>
            </g>
            <path d="M647.683,178.454 C645.558,178.686 643.712,177.76 643.563,176.387 C643.413,175.013 645.016,173.712 647.142,173.48 C649.268,173.249 651.113,174.174 651.262,175.548 C651.412,176.922 649.81,178.223 647.683,178.454 z" fill="#09AED5"/>
          </g>
          <path d="M591.251,117.031 C586.425,117.586 583.056,121.915 583.603,126.669 C584.723,136.393 594.808,137.785 602.538,146.602 C607.782,136.365 617.597,132.242 616.519,122.879 C615.972,118.125 611.634,114.684 606.881,115.231 C603.423,115.629 600.631,117.994 599.602,121.105 C597.893,118.309 594.708,116.633 591.251,117.031 z" fill="#FFA5E3"/>
        </g>
        <g>
          <path d="M626.892,159.833 L626.028,158.147 L624.342,159.01 L625.576,155.186 L627.735,159.401 L629.421,158.537 L625.967,151.793 L624.281,152.657 L621.813,160.306 L622.677,161.992 z" fill="#656565"/>
          <path d="M637.09,154.61 L633.635,147.866 L631.949,148.729 L634.108,152.945 L629.009,151.3 L628.577,150.457 L626.891,151.32 L627.755,153.006 L635.403,155.474 z" fill="#656565"/>
          <path d="M639.7,153.274 L637.109,148.215 L639.638,146.92 L640.912,147.331 L638.383,148.627 L639.247,150.313 L643.071,151.546 L644.757,150.683 L643.894,148.997 L643.051,149.429 L641.776,149.017 L643.463,148.154 L642.167,145.625 L639.617,144.802 L634.559,147.393 L638.013,154.137 z" fill="#656565"/>
          <path d="M651.583,147.187 L649.424,142.972 L646.052,144.699 L646.915,146.385 L648.601,145.522 L649.033,146.365 L646.504,147.66 L644.777,144.288 L648.992,142.129 L648.129,140.443 L642.227,143.465 L645.681,150.209 z" fill="#656565"/>
          <path d="M652.034,141.635 L650.348,142.499 L651.643,145.028 L654.193,145.85 z M651.602,140.792 L650.739,139.106 L649.053,139.97 L649.916,141.656 z" fill="#656565"/>
          <path d="M656.803,144.514 L654.212,139.456 L656.742,138.16 L658.016,138.572 L655.487,139.867 L656.35,141.553 L660.175,142.787 L661.861,141.923 L660.997,140.237 L660.155,140.669 L658.88,140.258 L660.565,139.394 L659.27,136.865 L656.721,136.042 L651.663,138.633 L655.117,145.377 z" fill="#656565"/>
          <path d="M667.843,138.859 L666.98,137.173 L663.607,138.9 L661.017,133.842 L659.331,134.705 L662.785,141.45 z" fill="#656565"/>
        </g>
      </g>
      <text transform="matrix(1, 0, 0, 1, 664.586, 300.053)">
        <tspan x="-123.501" y="-13.065" font-family="Helvetica" font-size="29" fill="#000000">avrgirl-stk500v2</tspan>
      </text>
    </g>
    <g>
      <g>
        <g>
          <g>
            <g>
              <path d="M594.066,470.334 C594.066,470.334 589.418,471.862 590.192,472.712 L582.961,520.566 C582.961,520.566 583.994,522.373 585.027,522.115 C585.027,522.115 587.481,520.824 587.868,520.566 C588.256,520.307 588.127,519.92 588.127,519.92 C588.127,519.92 591.355,497.581 591.742,497.581 C591.742,497.581 596.003,491.511 596.262,491.511 C596.52,491.511 597.553,481.181 597.553,481.181 L594.066,470.334 z" fill="#09AED5"/>
              <path d="M604.235,500.357 L602.621,509.88 L603.751,510.848 C603.751,510.848 606.495,511.333 607.303,509.88 L608.916,501.163 L604.235,500.357 z" fill="#09AED5"/>
            </g>
            <path d="M595.024,466.352 C595.172,465.948 647.752,435.576 662.817,432.348 C662.817,432.348 703.924,447.198 712.102,454.3 C712.102,454.3 717.482,473.885 714.039,480.126 C714.039,480.126 652.272,519.296 645.385,519.941 C645.385,519.941 615.039,510.902 595.669,494.546 C595.669,494.546 587.922,485.722 595.024,466.352 z" fill="#3A3A3A"/>
            <path d="M594.745,466.352 C594.903,465.951 647.474,435.576 662.539,432.348 C662.539,432.348 703.645,447.198 711.824,454.3 C711.824,454.3 716.741,463.016 713.298,469.258 C713.298,469.258 652.875,504.769 645.988,505.414 C645.988,505.414 615.32,492.34 592.238,479.588 C592.238,479.588 590.946,476.037 594.745,466.352 z" fill="#353535"/>
            <path d="M595.077,466.352 C595.077,466.352 647.805,435.576 662.871,432.348 C662.871,432.348 709.888,450.534 712.155,454.3 C705.168,460.864 656.529,489.273 646.414,492.716 C592.663,466.89 595.077,466.352 595.077,466.352 z" fill="#2C2C2C"/>
            <g>
              <path d="M665.863,491.64 L679.422,483.764 C679.422,483.764 686.782,485.572 686.136,489.575 C686.136,489.575 688.461,509.202 688.719,512.431 C688.719,512.431 686.653,519.92 684.974,522.632 C684.974,522.632 687.169,549.62 687.298,551.815 C687.298,551.815 684.458,554.656 682.521,553.107 C682.521,553.107 679.68,527.022 679.034,525.602 C679.034,525.602 673.74,520.178 673.74,519.791 C673.74,519.791 671.416,497.71 671.157,496.031 C670.899,494.352 670.899,494.74 670.899,494.74 L665.863,491.64 z" fill="#09AED5"/>
              <path d="M684.587,480.589 L698.145,472.712 C698.145,472.712 705.506,474.52 704.86,478.523 C704.86,478.523 707.185,498.151 707.443,501.379 C707.443,501.379 705.377,508.869 703.698,511.581 C703.698,511.581 705.894,538.569 706.022,540.764 C706.022,540.764 703.182,543.605 701.245,542.055 C701.245,542.055 698.404,515.971 697.758,514.55 C697.758,514.55 692.464,509.127 692.464,508.74 C692.464,508.74 690.139,486.658 689.881,484.98 C689.623,483.301 689.623,483.688 689.623,483.688 L684.587,480.589 z" fill="#09AED5"/>
              <path d="M651.4,499.388 L659.665,494.869 C659.665,494.869 666.638,496.935 666.638,501.584 C666.638,501.584 669.35,522.89 669.35,524.698 C669.35,524.698 667.025,533.22 665.863,534.641 C665.863,534.641 667.671,562.791 668.187,564.341 C668.187,564.341 665.088,568.602 663.151,565.632 L655.92,504.941 L651.271,502.617 L651.4,499.388 z" fill="#09AED5"/>
              <path d="M704.215,469.43 L711.188,465.169 C711.188,465.169 718.419,468.397 718.419,471.625 C718.419,471.625 722.68,526.269 722.551,528.055 C722.551,528.055 720.098,531.542 717.515,529.088 L715.836,503.004 C715.836,503.004 711.446,498.355 711.059,497.581 C711.059,497.581 709.38,476.403 708.734,473.82 L704.086,471.496 L704.215,469.43 z" fill="#09AED5"/>
            </g>
            <path d="M647.683,483.837 C645.557,484.069 643.712,483.142 643.563,481.769 C643.413,480.395 645.016,479.094 647.142,478.862 C649.268,478.631 651.113,479.556 651.262,480.93 C651.412,482.304 649.81,483.605 647.683,483.837 z" fill="#09AED5"/>
          </g>
          <path d="M591.251,422.413 C586.425,422.968 583.056,427.297 583.603,432.051 C584.723,441.775 594.808,443.168 602.538,451.984 C607.782,441.747 617.597,437.625 616.519,428.261 C615.972,423.508 611.634,420.066 606.881,420.613 C603.423,421.011 600.631,423.376 599.602,426.487 C597.893,423.692 594.708,422.015 591.251,422.413 z" fill="#FFA5E3"/>
        </g>
        <g>
          <path d="M626.892,465.215 L626.028,463.529 L624.342,464.393 L625.576,460.568 L627.735,464.783 L629.421,463.92 L625.967,457.176 L624.281,458.039 L621.813,465.688 L622.677,467.374 z" fill="#656565"/>
          <path d="M637.09,459.993 L633.635,453.248 L631.949,454.112 L634.108,458.327 L629.009,456.682 L628.577,455.839 L626.891,456.703 L627.755,458.388 L635.403,460.856 z" fill="#656565"/>
          <path d="M639.7,458.656 L637.109,453.598 L639.638,452.302 L640.912,452.714 L638.383,454.009 L639.247,455.695 L643.071,456.929 L644.757,456.065 L643.894,454.379 L643.051,454.811 L641.776,454.4 L643.463,453.536 L642.167,451.007 L639.617,450.185 L634.559,452.775 L638.013,459.52 z" fill="#656565"/>
          <path d="M651.583,452.57 L649.424,448.354 L646.052,450.081 L646.915,451.768 L648.601,450.904 L649.033,451.747 L646.504,453.042 L644.777,449.67 L648.992,447.511 L648.129,445.826 L642.227,448.848 L645.681,455.592 z" fill="#656565"/>
          <path d="M652.034,447.018 L650.348,447.881 L651.643,450.41 L654.193,451.233 z M651.602,446.174 L650.739,444.488 L649.053,445.352 L649.916,447.038 z" fill="#656565"/>
          <path d="M656.803,449.896 L654.212,444.838 L656.742,443.543 L658.016,443.954 L655.487,445.249 L656.35,446.935 L660.175,448.169 L661.861,447.306 L660.997,445.62 L660.155,446.051 L658.88,445.64 L660.565,444.776 L659.27,442.247 L656.721,441.425 L651.663,444.016 L655.117,450.76 z" fill="#656565"/>
          <path d="M667.843,444.242 L666.98,442.555 L663.607,444.283 L661.017,439.225 L659.331,440.088 L662.785,446.832 z" fill="#656565"/>
        </g>
      </g>
      <text transform="matrix(1, 0, 0, 1, 674.046, 586.927)">
        <tspan x="-118.296" y="5.443" font-family="Helvetica" font-size="29" fill="#000000">avrgirl-ispmkii</tspan>
      </text>
    </g>
    <g>
      <g>
        <g>
          <g>
            <g>
              <path d="M259.765,470.334 C259.765,470.334 255.117,471.862 255.891,472.712 L248.66,520.566 C248.66,520.566 249.693,522.373 250.726,522.115 C250.726,522.115 253.18,520.824 253.567,520.566 C253.955,520.307 253.826,519.92 253.826,519.92 C253.826,519.92 257.053,497.581 257.441,497.581 C257.441,497.581 261.702,491.511 261.961,491.511 C262.219,491.511 263.252,481.181 263.252,481.181 L259.765,470.334 z" fill="#09AED5"/>
              <path d="M269.934,500.357 L268.32,509.88 L269.45,510.848 C269.45,510.848 272.194,511.333 273.001,509.88 L274.615,501.164 L269.934,500.357 z" fill="#09AED5"/>
            </g>
            <path d="M260.722,466.352 C260.87,465.948 313.45,435.576 328.515,432.348 C328.515,432.348 369.622,447.198 377.8,454.3 C377.8,454.3 383.18,473.885 379.737,480.126 C379.737,480.126 317.97,519.296 311.083,519.941 C311.083,519.941 280.737,510.902 261.368,494.546 C261.368,494.546 253.62,485.722 260.722,466.352 z" fill="#3A3A3A"/>
            <path d="M260.444,466.352 C260.601,465.952 313.172,435.576 328.237,432.348 C328.237,432.348 369.344,447.198 377.522,454.3 C377.522,454.3 382.439,463.017 378.996,469.258 C378.996,469.258 318.574,504.769 311.686,505.414 C311.686,505.414 281.018,492.34 257.936,479.588 C257.936,479.588 256.644,476.037 260.444,466.352 z" fill="#353535"/>
            <path d="M260.775,466.352 C260.775,466.352 313.504,435.576 328.569,432.348 C328.569,432.348 375.586,450.534 377.854,454.3 C370.866,460.864 322.227,489.273 312.112,492.717 C258.361,466.89 260.775,466.352 260.775,466.352 z" fill="#2C2C2C"/>
            <g>
              <path d="M331.562,491.64 L345.12,483.764 C345.12,483.764 352.481,485.572 351.835,489.575 C351.835,489.575 354.159,509.202 354.418,512.431 C354.418,512.431 352.352,519.92 350.673,522.632 C350.673,522.632 352.868,549.62 352.997,551.815 C352.997,551.815 350.156,554.656 348.22,553.107 C348.22,553.107 345.379,527.022 344.733,525.602 C344.733,525.602 339.439,520.178 339.439,519.791 C339.439,519.791 337.114,497.71 336.856,496.031 C336.598,494.352 336.598,494.74 336.598,494.74 L331.562,491.64 z" fill="#09AED5"/>
              <path d="M350.286,480.589 L363.844,472.712 C363.844,472.712 371.205,474.52 370.559,478.523 C370.559,478.523 372.884,498.151 373.142,501.379 C373.142,501.379 371.076,508.869 369.397,511.581 C369.397,511.581 371.593,538.569 371.721,540.764 C371.721,540.764 368.881,543.605 366.944,542.055 C366.944,542.055 364.103,515.971 363.457,514.55 C363.457,514.55 358.163,509.127 358.163,508.74 C358.163,508.74 355.838,486.658 355.58,484.98 C355.322,483.301 355.322,483.688 355.322,483.688 L350.286,480.589 z" fill="#09AED5"/>
              <path d="M317.099,499.388 L325.364,494.869 C325.364,494.869 332.337,496.935 332.337,501.584 C332.337,501.584 335.049,522.89 335.049,524.698 C335.049,524.698 332.724,533.22 331.562,534.641 C331.562,534.641 333.37,562.791 333.886,564.341 C333.886,564.341 330.787,568.602 328.85,565.632 L321.619,504.941 L316.97,502.617 L317.099,499.388 z" fill="#09AED5"/>
              <path d="M369.914,469.43 L376.887,465.169 C376.887,465.169 384.118,468.397 384.118,471.625 C384.118,471.625 388.379,526.269 388.25,528.055 C388.25,528.055 385.797,531.542 383.214,529.088 L381.535,503.004 C381.535,503.004 377.145,498.355 376.758,497.581 C376.758,497.581 375.079,476.403 374.433,473.82 L369.785,471.496 L369.914,469.43 z" fill="#09AED5"/>
            </g>
            <path d="M313.382,483.837 C311.256,484.069 309.411,483.143 309.261,481.769 C309.111,480.395 310.714,479.094 312.84,478.862 C314.966,478.631 316.811,479.557 316.96,480.93 C317.11,482.304 315.508,483.605 313.382,483.837 z" fill="#09AED5"/>
          </g>
          <path d="M256.949,422.413 C252.123,422.969 248.754,427.298 249.301,432.051 C250.421,441.775 260.507,443.168 268.236,451.984 C273.48,441.747 283.296,437.625 282.217,428.261 C281.67,423.508 277.332,420.066 272.579,420.613 C269.121,421.012 266.329,423.376 265.3,426.487 C263.592,423.692 260.406,422.015 256.949,422.413 z" fill="#FFA5E3"/>
        </g>
        <g>
          <path d="M292.591,465.215 L291.727,463.529 L290.041,464.393 L291.275,460.568 L293.434,464.783 L295.12,463.92 L291.666,457.176 L289.98,458.039 L287.512,465.688 L288.376,467.374 z" fill="#656565"/>
          <path d="M302.788,459.993 L299.334,453.248 L297.648,454.112 L299.807,458.327 L294.708,456.682 L294.276,455.839 L292.59,456.703 L293.453,458.389 L301.102,460.856 z" fill="#656565"/>
          <path d="M305.398,458.656 L302.808,453.598 L305.337,452.302 L306.611,452.714 L304.082,454.009 L304.946,455.695 L308.77,456.929 L310.456,456.065 L309.593,454.379 L308.75,454.811 L307.475,454.4 L309.161,453.536 L307.866,451.007 L305.316,450.185 L300.258,452.775 L303.712,459.52 z" fill="#656565"/>
          <path d="M317.282,452.57 L315.123,448.354 L311.751,450.081 L312.614,451.768 L314.3,450.904 L314.732,451.747 L312.203,453.042 L310.476,449.67 L314.691,447.512 L313.828,445.826 L307.926,448.848 L311.38,455.592 z" fill="#656565"/>
          <path d="M317.733,447.018 L316.047,447.881 L317.342,450.41 L319.892,451.233 z M317.301,446.174 L316.438,444.489 L314.752,445.352 L315.615,447.038 z" fill="#656565"/>
          <path d="M322.502,449.896 L319.911,444.838 L322.44,443.543 L323.715,443.954 L321.186,445.249 L322.049,446.935 L325.874,448.169 L327.56,447.306 L326.696,445.62 L325.853,446.051 L324.578,445.64 L326.264,444.776 L324.969,442.247 L322.42,441.425 L317.362,444.016 L320.815,450.76 z" fill="#656565"/>
          <path d="M333.542,444.242 L332.679,442.555 L329.306,444.283 L326.716,439.225 L325.03,440.088 L328.484,446.832 z" fill="#656565"/>
        </g>
      </g>
      <text transform="matrix(1, 0, 0, 1, 325.285, 605.435)">
        <tspan x="-129.285" y="-13.065" font-family="Helvetica" font-size="29" fill="#000000">avrgirl-chips-json</tspan>
      </text>
    </g>
  </g>
</svg>
