<?xml version="1.0" encoding="UTF-8"?>
<!DOCTYPE svg PUBLIC "-//W3C//DTD SVG 1.1//EN" "http://www.w3.org/Graphics/SVG/1.1/DTD/svg11.dtd">
<svg version="1.1" xmlns="http://www.w3.org/2000/svg" xmlns:xlink="http://www.w3.org/1999/xlink" x="0" y="0" width="1000" height="320" viewBox="0, 0, 1000, 320">
  <g id="Layer_1">
    <g>
      <path d="M114.922,193.254 C142.25,198.643 178.431,201.337 216.536,201.337 C254.641,201.337 290.822,198.258 318.15,193.254 C320.074,192.869 322.768,192.484 325.463,191.714 C325.848,194.409 325.848,197.103 325.848,200.182 C325.848,260.611 276.965,309.494 216.536,309.494 C156.106,309.494 107.224,260.611 107.224,200.182 C107.224,197.488 107.224,194.793 107.609,191.714 C110.303,192.484 112.998,192.869 114.922,193.254 z" fill="#A17A08"/>
      <g>
        <path d="M98.102,147.182 L107.724,147.182 L107.724,114.851 C107.724,83.289 123.505,55.961 147.754,39.41 L147.754,102.534 C147.754,108.307 152.757,113.311 158.531,113.311 C164.304,113.311 169.308,108.692 169.308,102.534 L169.308,23.244 C169.308,14.777 176.236,8.233 184.319,8.233 L249.752,8.233 C258.22,8.233 264.763,15.162 264.763,23.244 L264.763,102.919 C264.763,108.692 269.767,113.696 275.541,113.696 C281.314,113.696 286.318,109.077 286.318,102.919 L286.318,39.795 C310.567,55.961 326.348,83.674 326.348,115.236 L326.348,147.567 L336.74,147.567 C347.132,147.567 355.6,156.035 355.6,166.427 C355.6,181.054 294.016,192.986 217.806,192.986 C141.595,192.986 80.011,181.054 80.011,166.427 C79.626,155.65 88.094,147.182 98.102,147.182 z" fill="#FFF103"/>
        <path d="M98.102,147.182 L107.724,147.182 L107.724,114.851 C107.724,83.289 123.505,55.961 147.754,39.41 L147.754,102.534 C147.754,108.307 152.757,113.311 158.531,113.311 C164.304,113.311 169.308,108.692 169.308,102.534 L169.308,23.244 C169.308,14.777 176.236,8.233 184.319,8.233 L249.752,8.233 C258.22,8.233 264.763,15.162 264.763,23.244 L264.763,102.919 C264.763,108.692 269.767,113.696 275.541,113.696 C281.314,113.696 286.318,109.077 286.318,102.919 L286.318,39.795 C310.567,55.961 326.348,83.674 326.348,115.236 L326.348,147.567 L336.74,147.567 C347.132,147.567 355.6,156.035 355.6,166.427 C355.6,181.054 294.016,192.986 217.806,192.986 C141.595,192.986 80.011,181.054 80.011,166.427 C79.626,155.65 88.094,147.182 98.102,147.182 z" fill-opacity="0" stroke="#CBC000" stroke-width="1"/>
      </g>
      <path d="M235.957,274.942 C235.957,274.942 217.034,297.778 202.964,273.672" fill-opacity="0" stroke="#EB8ACC" stroke-width="3"/>
      <g>
        <path d="M252.911,247.147 C259.388,247.147 264.639,241.897 264.639,235.42 C264.639,228.942 259.388,223.692 252.911,223.692 C246.434,223.692 241.183,228.942 241.183,235.42 C241.183,241.897 246.434,247.147 252.911,247.147 z" fill="#000000"/>
        <path d="M258.175,227.49 C258.175,227.49 265.139,226.757 265.139,221.993" fill-opacity="0" stroke="#000000" stroke-width="3" stroke-linecap="round"/>
        <path d="M251.578,227.49 C251.578,227.49 258.542,226.757 258.542,221.993" fill-opacity="0" stroke="#000000" stroke-width="3" stroke-linecap="round"/>
        <path d="M257.675,235.053 C259.902,235.053 261.707,233.248 261.707,231.022 C261.707,228.795 259.902,226.99 257.675,226.99 C255.449,226.99 253.644,228.795 253.644,231.022 C253.644,233.248 255.449,235.053 257.675,235.053 z" fill="#FFFFFF"/>
      </g>
      <g>
        <path d="M183.895,247.147 C190.372,247.147 195.623,241.897 195.623,235.42 C195.623,228.942 190.372,223.692 183.895,223.692 C177.418,223.692 172.167,228.942 172.167,235.42 C172.167,241.897 177.418,247.147 183.895,247.147 z" fill="#000000"/>
        <path d="M190.076,227.49 C190.076,227.49 197.039,226.757 197.039,221.993" fill-opacity="0" stroke="#000000" stroke-width="3" stroke-linecap="round"/>
        <path d="M182.38,227.49 C182.38,227.49 189.343,226.757 189.343,221.993" fill-opacity="0" stroke="#000000" stroke-width="3" stroke-linecap="round"/>
        <path d="M188.293,235.053 C190.52,235.053 192.325,233.248 192.325,231.022 C192.325,228.795 190.52,226.99 188.293,226.99 C186.067,226.99 184.262,228.795 184.262,231.022 C184.262,233.248 186.067,235.053 188.293,235.053 z" fill="#FFFFFF"/>
      </g>
      <g>
        <path d="M216.523,174.551 C196.234,174.551 179.787,158.104 179.787,137.815 C179.787,117.526 196.234,101.079 216.523,101.079 C236.811,101.079 253.258,117.526 253.258,137.815 C253.258,158.104 236.811,174.551 216.523,174.551 z" fill="#AED8FF"/>
        <path d="M216.523,174.551 C196.234,174.551 179.787,158.104 179.787,137.815 C179.787,117.526 196.234,101.079 216.523,101.079 C236.811,101.079 253.258,117.526 253.258,137.815 C253.258,158.104 236.811,174.551 216.523,174.551 z" fill-opacity="0" stroke="#7C7C7C" stroke-width="1"/>
      </g>
      <g>
        <path d="M216.829,137.664 L216.829,107.783" fill-opacity="0" stroke="#232323" stroke-width="1"/>
        <path d="M216.829,137.664 L230.773,107.783" fill-opacity="0" stroke="#232323" stroke-width="1"/>
        <path d="M216.829,137.664 L241.5,119.072" fill-opacity="0" stroke="#232323" stroke-width="1"/>
        <path d="M216.829,137.664 L245.796,131.024" fill-opacity="0" stroke="#232323" stroke-width="1"/>
        <path d="M216.829,137.664 L245.796,148.289" fill-opacity="0" stroke="#232323" stroke-width="1"/>
        <path d="M216.829,137.664 L234.093,160.241" fill-opacity="0" stroke="#232323" stroke-width="1"/>
        <path d="M216.829,137.664 L216.829,168.873" fill-opacity="0" stroke="#232323" stroke-width="1"/>
        <path d="M216.829,137.664 L202.913,164.889" fill-opacity="0" stroke="#232323" stroke-width="1"/>
        <path d="M216.829,137.664 L193.582,153.601" fill-opacity="0" stroke="#232323" stroke-width="1"/>
        <path d="M216.829,137.664 L188.276,140.984" fill-opacity="0" stroke="#232323" stroke-width="1"/>
        <path d="M216.829,137.664 L188.276,123.72" fill-opacity="0" stroke="#232323" stroke-width="1"/>
        <path d="M216.829,137.664 L199.564,113.096" fill-opacity="0" stroke="#232323" stroke-width="1"/>
        <path d="M213.177,131.024 C213.177,131.024 215.667,132.85 216.829,129.696 C216.829,129.696 219.485,132.684 220.481,129.862 C220.481,129.862 220.647,134.344 223.303,132.186 C225.959,130.028 224.133,131.024 224.133,131.024 C224.133,131.024 220.979,135.838 223.635,135.34 C223.635,135.34 221.477,137.664 223.137,139.324 C223.137,139.324 220.149,139.988 220.979,142.312 C221.809,144.637 220.813,140.984 220.813,140.984 C220.813,140.984 217.825,140.818 216.829,143.64 C216.829,143.64 215.169,142.478 214.339,143.474 C213.509,144.471 214.505,142.478 214.505,142.478 C214.505,142.478 213.343,140.984 211.351,140.984 C211.351,140.984 211.849,138.328 208.861,138.494 C208.861,138.494 211.517,135.008 208.363,133.846 C208.363,133.846 212.015,131.19 211.019,128.534 C211.019,128.534 215.169,128.866 216.829,125.214 C216.829,125.214 220.647,128.368 222.805,125.214 C222.805,125.214 224.133,130.194 229.113,127.87 C229.113,127.87 226.125,133.68 230.773,133.846 C230.773,133.846 224.963,138.66 228.283,140.984 C228.283,140.984 223.469,142.312 224.299,146.961 C224.299,146.961 220.315,144.139 216.829,148.289 C216.829,148.289 215.335,146.131 211.517,148.289 C211.517,148.289 210.189,144.637 205.541,145.135 C205.541,145.135 207.755,139.656 202.913,139.324 C202.913,139.324 207.091,134.344 202.913,131.024 C202.913,131.024 208.529,129.198 207.699,123.72 C207.699,123.72 216.829,126.044 216.829,119.072 C216.829,119.072 222.805,123.886 225.295,119.072 C225.295,119.072 226.687,126.542 234.093,123.72 C234.093,123.72 232.931,132.684 237.911,132.85 C237.911,132.85 233.263,137.996 234.093,143.142 C234.093,143.142 228.117,145.633 228.781,151.277 C228.781,151.277 216.829,150.613 216.829,155.427 C216.829,155.427 212.679,150.945 208.363,154.929 C208.363,154.929 207.035,148.289 199.564,149.451 C199.564,149.451 201.888,142.312 196.576,139.988 C196.576,139.988 202.559,131.854 198.07,128.202 C198.07,128.202 206.261,123.886 202.913,117.744 C202.913,117.744 212.845,120.4 216.829,114.092 C216.829,114.092 221.809,118.408 227.951,113.096 C227.951,113.096 230.027,119.902 237.911,121.064 C237.911,121.064 237.204,132.02 241.5,131.024 C241.5,131.024 237.911,139.158 238.908,145.135 C238.908,145.135 230.773,150.281 230.773,155.925 C230.773,155.925 219.817,155.593 216.829,161.237 C216.829,161.237 210.355,155.593 205.873,160.241 C205.873,160.241 201.556,151.609 195.912,152.107 C195.912,152.107 196.908,142.644 192.592,140.984 C192.592,140.984 196.564,132.518 193.582,126.21" fill-opacity="0" stroke="#232323" stroke-width="1"/>
      </g>
    </g>
    <g>
      <path d="M893.607,194.093 C866.279,199.482 830.099,202.176 791.994,202.176 C753.888,202.176 717.708,199.097 690.38,194.093 C688.455,193.709 685.761,193.324 683.067,192.554 C682.682,195.248 682.682,197.942 682.682,201.022 C682.682,261.451 731.564,310.333 791.994,310.333 C852.423,310.333 901.305,261.451 901.305,201.022 C901.305,198.327 901.305,195.633 900.92,192.554 C898.226,193.324 895.532,193.709 893.607,194.093 z" fill="#A17A08"/>
      <g>
        <path d="M911.428,146.995 L901.805,146.995 L901.805,114.664 C901.805,83.102 886.024,55.774 861.776,39.223 L861.776,102.347 C861.776,108.12 856.772,113.124 850.998,113.124 C845.225,113.124 840.221,108.505 840.221,102.347 L840.221,23.057 C840.221,14.59 833.293,8.046 825.21,8.046 L759.777,8.046 C751.309,8.046 744.766,14.975 744.766,23.057 L744.766,102.732 C744.766,108.505 739.762,113.509 733.989,113.509 C728.215,113.509 723.211,108.89 723.211,102.732 L723.211,39.608 C698.963,55.774 683.182,83.487 683.182,115.049 L683.182,147.38 L672.789,147.38 C662.397,147.38 653.929,155.848 653.929,166.24 C653.929,180.867 715.513,192.799 791.724,192.799 C867.934,192.799 929.518,180.867 929.518,166.24 C929.903,155.463 921.435,146.995 911.428,146.995 z" fill="#FFF103"/>
        <path d="M911.428,146.995 L901.805,146.995 L901.805,114.664 C901.805,83.102 886.024,55.774 861.776,39.223 L861.776,102.347 C861.776,108.12 856.772,113.124 850.998,113.124 C845.225,113.124 840.221,108.505 840.221,102.347 L840.221,23.057 C840.221,14.59 833.293,8.046 825.21,8.046 L759.777,8.046 C751.309,8.046 744.766,14.975 744.766,23.057 L744.766,102.732 C744.766,108.505 739.762,113.509 733.989,113.509 C728.215,113.509 723.211,108.89 723.211,102.732 L723.211,39.608 C698.963,55.774 683.182,83.487 683.182,115.049 L683.182,147.38 L672.789,147.38 C662.397,147.38 653.929,155.848 653.929,166.24 C653.929,180.867 715.513,192.799 791.724,192.799 C867.934,192.799 929.518,180.867 929.518,166.24 C929.903,155.463 921.435,146.995 911.428,146.995 z" fill-opacity="0" stroke="#CBC000" stroke-width="1"/>
      </g>
      <path d="M773.572,275.782 C773.572,275.782 792.495,298.617 806.565,274.512" fill-opacity="0" stroke="#EB8ACC" stroke-width="3"/>
      <g>
        <path d="M755.619,247.987 C749.141,247.987 743.891,242.736 743.891,236.259 C743.891,229.782 749.141,224.531 755.619,224.531 C762.096,224.531 767.346,229.782 767.346,236.259 C767.346,242.736 762.096,247.987 755.619,247.987 z" fill="#000000"/>
        <path d="M751.354,228.33 C751.354,228.33 744.391,227.597 744.391,222.832" fill-opacity="0" stroke="#000000" stroke-width="3" stroke-linecap="round"/>
        <path d="M757.951,228.33 C757.951,228.33 750.988,227.597 750.988,222.832" fill-opacity="0" stroke="#000000" stroke-width="3" stroke-linecap="round"/>
        <path d="M750.854,235.893 C748.628,235.893 746.823,234.088 746.823,231.861 C746.823,229.635 748.628,227.83 750.854,227.83 C753.081,227.83 754.886,229.635 754.886,231.861 C754.886,234.088 753.081,235.893 750.854,235.893 z" fill="#FFFFFF"/>
      </g>
      <g>
        <path d="M824.634,247.987 C818.157,247.987 812.906,242.736 812.906,236.259 C812.906,229.782 818.157,224.531 824.634,224.531 C831.111,224.531 836.362,229.782 836.362,236.259 C836.362,242.736 831.111,247.987 824.634,247.987 z" fill="#000000"/>
        <path d="M819.453,228.33 C819.453,228.33 812.49,227.597 812.49,222.832" fill-opacity="0" stroke="#000000" stroke-width="3" stroke-linecap="round"/>
        <path d="M827.15,228.33 C827.15,228.33 820.186,227.597 820.186,222.832" fill-opacity="0" stroke="#000000" stroke-width="3" stroke-linecap="round"/>
        <path d="M820.236,235.893 C818.01,235.893 816.205,234.088 816.205,231.861 C816.205,229.635 818.01,227.83 820.236,227.83 C822.463,227.83 824.268,229.635 824.268,231.861 C824.268,234.088 822.463,235.893 820.236,235.893 z" fill="#FFFFFF"/>
      </g>
      <g>
        <path d="M793.748,177.988 C773.279,177.988 756.686,161.395 756.686,140.927 C756.686,120.459 773.279,103.866 793.748,103.866 C814.216,103.866 830.809,120.459 830.809,140.927 C830.809,161.395 814.216,177.988 793.748,177.988 z" fill="#AED8FF"/>
        <path d="M793.748,177.988 C773.279,177.988 756.686,161.395 756.686,140.927 C756.686,120.459 773.279,103.866 793.748,103.866 C814.216,103.866 830.809,120.459 830.809,140.927 C830.809,161.395 814.216,177.988 793.748,177.988 z" fill-opacity="0" stroke="#7C7C7C" stroke-width="1"/>
      </g>
      <g>
        <path d="M789.235,115.413 L807.986,135.235 L792.449,143.807 L801.557,166.96 L777.448,140.057 L792.449,131.485 L789.235,115.413 z" fill="#FCF5B1"/>
        <path d="M789.235,115.413 L807.986,135.235 L792.449,143.807 L801.557,166.96 L777.448,140.057 L792.449,131.485 L789.235,115.413 z" fill-opacity="0" stroke="#232323" stroke-width="1"/>
      </g>
    </g>
    <g>
      <g>
        <path d="M595.739,187.322 L581.197,157.871" fill-opacity="0" stroke="#00820D" stroke-width="9" stroke-linecap="round"/>
        <path d="M595.739,187.322 L566.288,201.863" fill-opacity="0" stroke="#00820D" stroke-width="9" stroke-linecap="round"/>
      </g>
      <path d="M596.353,183.594 C596.353,183.594 495.409,155.051 403.705,185.372" fill-opacity="0" stroke="#00820D" stroke-width="9"/>
    </g>
  </g>
</svg>
